<svg xmlns="http://www.w3.org/2000/svg" xmlns:xlink="http://www.w3.org/1999/xlink" viewBox="148.2 -447.1 1038.4 1040.1"><g fill="#fff"><path d="M1076.3 148c-19.5-19.5-47.3-23.4-62.1-8.6l-47.8 47.8c-10.3 10.3-29.7 7.6-43.3-6-13.6-13.6-16.3-33-6-43.3l246.4-246.4c14.8-14.8 10.9-42.6-8.6-62.1s-47.3-23.4-62.1-8.6L890.2 23.4c-10.3 10.3-29.7 7.6-43.3-6-13.6-13.6-16.3-33-6-43.3L845-30c14.8-14.8 10.9-42.6-8.6-62.1s-47.3-23.4-62.1-8.6l-282 282c-14.8 14.8-10.9 42.6 8.6 62.1s47.3 23.4 62.1 8.6l54.3-54.3c10.3-10.3 29.7-7.6 43.3 6 13.6 13.6 16.3 33 6 43.3L398.8 514.8c-14.8 14.8-10.9 42.6 8.6 62.1s47.3 23.4 62.1 8.6l224-224c10.3-10.3 29.7-7.6 43.3 6 13.6 13.6 16.3 33 6 43.3l-10.5 10.5c-14.8 14.8-10.9 42.6 8.6 62.1s47.3 23.4 62.1 8.6l281.9-281.9c14.8-14.8 10.9-42.6-8.6-62.1z" opacity=".1"/><path d="M836.3-92.1c-19.5-19.5-47.3-23.4-62.1-8.6l-47.8 47.8c-10.3 10.3-29.7 7.6-43.3-6-13.6-13.6-16.3-33-6-43.3l246.4-246.4c14.8-14.8 10.9-42.6-8.6-62.1s-47.3-23.4-62.1-8.6L650.2-216.6c-10.3 10.3-29.7 7.6-43.3-6-13.6-13.6-16.3-33-6-43.3l4.1-4.1c14.8-14.8 10.9-42.6-8.6-62.1s-47.3-23.4-62.1-8.6l-282 281.9c-14.8 14.8-10.9 42.6 8.6 62.1s47.3 23.4 62.1 8.6l54.3-54.3c10.3-10.3 29.7-7.6 43.3 6 13.6 13.6 16.3 33 6 43.3L158.8 274.7c-14.8 14.8-10.9 42.6 8.6 62.1s47.3 23.4 62.1 8.6l224-224c10.3-10.3 29.7-7.6 43.3 6 13.6 13.6 16.3 33 6 43.3l-10.5 10.5c-14.8 14.8-10.9 42.6 8.6 62.1s47.3 23.4 62.1 8.6L844.9-30c14.8-14.7 10.9-42.5-8.6-62.1z" opacity=".1"/><use xlink:href="#B"/><path d="M522.8-136.3c-12.1 0-22 9.9-22 22s9.9 22 22 22 22-9.9 22-22-9.8-22-22-22zm0 29c-3.9 0-7-3.1-7-7s3.1-7 7-7 7 3.1 7 7-3.1 7-7 7z"/><use xlink:href="#B" x="112.1"/><path d="M891-165.1H445c-18.2 0-33 14.8-33 33v446c0 18.2 14.8 33 33 33h446c18.2 0 33-14.8 33-33v-446c0-18.2-14.8-33-33-33zm18 479c0 9.9-8.1 18-18 18H445c-9.9 0-18-8.1-18-18v-377h482v377zm0-392H427v-54c0-9.9 8.1-18 18-18h446c9.9 0 18 8.1 18 18v54zm-423.9 237h364.6c13.1 0 23.7-10 23.7-22.4v-157c0-12.3-10.6-22.4-23.7-22.4H734c-4.1 0-7.5 3.2-7.5 7.1s3.4 7.1 7.5 7.1h115.7c4.8 0 8.7 3.7 8.7 8.2v157c0 4.5-3.9 8.2-8.7 8.2H485.1c-4.8 0-8.7-3.7-8.7-8.2v-157c0-4.5 3.9-8.2 8.7-8.2h214.7c4.1 0 7.5-3.2 7.5-7.1s-3.4-7.1-7.5-7.1H485.1c-13.1 0-23.7 10-23.7 22.4v157c0 12.4 10.6 22.4 23.7 22.4zM694.2 51.5l-37.9-21.9c-4.6-2.6-10-2.6-14.5 0-4.6 2.6-7.3 7.3-7.3 12.6V86c0 5.3 2.7 10 7.3 12.6 2.3 1.3 4.8 2 7.3 2s5-.7 7.3-2l37.9-21.9c4.6-2.6 7.3-7.3 7.3-12.6-.1-5.3-2.8-10-7.4-12.6zm-44.7 33.7V43L686 64.1l-36.5 21.1zm210.2 175.3h-204c-4.1 0-7.5 3.4-7.5 7.5s3.4 7.5 7.5 7.5h201.5v12.3H602.1v-12.3H621c4.1 0 7.5-3.4 7.5-7.5s-3.4-7.5-7.5-7.5h-19.4c-1.6-6.1-7.1-10.5-13.6-10.5h-18.3c-6.5 0-12 4.5-13.6 10.5H474c-6.9 0-12.5 5.6-12.5 12.5v17.2c0 6.9 5.6 12.5 12.5 12.5h82.1c1.6 6.1 7.1 10.5 13.6 10.5H588c6.5 0 12-4.5 13.6-10.5h258c6.9 0 12.5-5.6 12.5-12.5V273c.1-6.9-5.5-12.5-12.4-12.5zm-304.1 27.3h-79.1v-12.3h79.1v12.3zm31.5 10.5h-16.5V265h16.5v33.3zm270.2-121.1H723.1c-8.2 0-14.9 6.7-14.9 14.9v34.2c0 8.2 6.7 14.9 14.9 14.9h134.2c8.2 0 14.9-6.7 14.9-14.9v-34.2c0-8.2-6.7-14.9-14.9-14.9zm-.1 49.1h-134v-34h134v34zm-115.7-9.5h99.4c4.1 0 7.5-3.4 7.5-7.5s-3.4-7.5-7.5-7.5h-99.4c-4.1 0-7.5 3.4-7.5 7.5s3.4 7.5 7.5 7.5zm-245-19.4h-21.8c-4.1 0-7.5-3.4-7.5-7.5s3.4-7.5 7.5-7.5h21.8c4.1 0 7.5 3.4 7.5 7.5 0 4.2-3.3 7.5-7.5 7.5zm157.5 0H531.3c-4.1 0-7.5-3.4-7.5-7.5s3.4-7.5 7.5-7.5H654c4.1 0 7.5 3.4 7.5 7.5 0 4.2-3.4 7.5-7.5 7.5zm-2.8 26.9h-53.7c-5.7 0-10.3-3.4-10.3-7.5s4.6-7.5 10.3-7.5h53.7c5.7 0 10.3 3.4 10.3 7.5s-4.6 7.5-10.3 7.5zm-91.5 0h-15.2c-4.1 0-7.5-3.4-7.5-7.5s3.4-7.5 7.5-7.5h15.2c4.1 0 7.5 3.4 7.5 7.5s-3.4 7.5-7.5 7.5zm-50.4 0h-34.6c-4.1 0-7.5-3.4-7.5-7.5s3.4-7.5 7.5-7.5h34.6c4.1 0 7.5 3.4 7.5 7.5s-3.4 7.5-7.5 7.5z"/></g><g fill="none" stroke="#fff"><g stroke-miterlimit="10"><path d="M1019.9 151.9c21.1 27 30.1 60 35.1 94 7 45-5 87-29 125-3 3-5 6-7 10-2 2-4 4-5 7l-6 6c-1 1-1 3-2 4-41 48-103 69-164 65-51-4-98-28-132-67-1-1 0-2-1-3-2-1-4-3-5.2-5.2" stroke-width="13" stroke-dasharray="30.972"/><path d="M340.4 6.5C334-6.3 328.1-18.9 324-33.6c-.2-2-.2-3-.4-5-19.4-71.7 9.9-148.2 71-188.9.9-1.1 1.8-2.1 2.8-3.2 58.2-39.5 136.2-42.3 195.5-5.1" stroke-width="20" stroke-dasharray="7.116,35.58"/></g><circle cx="675.9" cy="-235.6" r="29.6" stroke-width="9"/><circle cx="769.3" cy="-268.1" r="17.8" stroke-width="6"/></g><g fill="#fff"><circle cx="352.2" cy="99.9" r="18.8"/><circle cx="870.1" cy="-227.9" r="21.7"/><path d="M375.6 199.6h-18.3v-18.3c0-3-2.4-5.4-5.4-5.4s-5.4 2.4-5.4 5.4v18.3h-18.2c-3 0-5.4 2.4-5.4 5.4s2.4 5.4 5.4 5.4h18.3v18.3c0 3 2.4 5.4 5.4 5.4s5.4-2.4 5.4-5.4v-18.3h18.3c3 0 5.4-2.4 5.4-5.4-.1-3-2.5-5.4-5.5-5.4z"/></g><defs><path id="B" d="M466.8-136.3c-12.1 0-22 9.9-22 22s9.9 22 22 22 22-9.9 22-22-9.9-22-22-22zm0 29c-3.9 0-7-3.1-7-7s3.1-7 7-7 7 3.1 7 7-3.2 7-7 7z"/></defs></svg>