<svg xmlns="http://www.w3.org/2000/svg" viewBox="146.8 -448.5 1038.2 1039.9"><g fill="#fff"><path d="M1076.3 148c-19.5-19.5-47.3-23.4-62.1-8.6l-47.8 47.8c-10.3 10.3-29.7 7.6-43.3-6-13.6-13.6-16.3-33-6-43.3l246.4-246.4c14.8-14.8 10.9-42.6-8.6-62.1s-47.3-23.4-62.1-8.6L890.2 23.4c-10.3 10.3-29.7 7.6-43.3-6-13.6-13.6-16.3-33-6-43.3L845-30c14.8-14.8 10.9-42.6-8.6-62.1s-47.3-23.4-62.1-8.6l-282 282c-14.8 14.8-10.9 42.6 8.6 62.1s47.3 23.4 62.1 8.6l54.3-54.3c10.3-10.3 29.7-7.6 43.3 6 13.6 13.6 16.3 33 6 43.3L398.8 514.8c-14.8 14.8-10.9 42.6 8.6 62.1s47.3 23.4 62.1 8.6l224-224c10.3-10.3 29.7-7.6 43.3 6 13.6 13.6 16.3 33 6 43.3l-10.5 10.5c-14.8 14.8-10.9 42.6 8.6 62.1s47.3 23.4 62.1 8.6l281.9-281.9c14.8-14.8 10.9-42.6-8.6-62.1z" opacity=".1"/><path d="M836.3-92.1c-19.5-19.5-47.3-23.4-62.1-8.6l-47.8 47.8c-10.3 10.3-29.7 7.6-43.3-6-13.6-13.6-16.3-33-6-43.3l246.4-246.4c14.8-14.8 10.9-42.6-8.6-62.1s-47.3-23.4-62.1-8.6L650.2-216.6c-10.3 10.3-29.7 7.6-43.3-6-13.6-13.6-16.3-33-6-43.3l4.1-4.1c14.8-14.8 10.9-42.6-8.6-62.1s-47.3-23.4-62.1-8.6l-282 281.9c-14.8 14.8-10.9 42.6 8.6 62.1s47.3 23.4 62.1 8.6l54.3-54.3c10.3-10.3 29.7-7.6 43.3 6 13.6 13.6 16.3 33 6 43.3L158.8 274.7c-14.8 14.8-10.9 42.6 8.6 62.1s47.3 23.4 62.1 8.6l224-224c10.3-10.3 29.7-7.6 43.3 6 13.6 13.6 16.3 33 6 43.3l-10.5 10.5c-14.8 14.8-10.9 42.6 8.6 62.1s47.3 23.4 62.1 8.6L844.9-30c14.8-14.7 10.9-42.5-8.6-62.1z" opacity=".1"/></g><g fill="none" stroke="#fff"><g stroke-miterlimit="10"><path d="M1019.9 151.9c21.1 27 30.1 60 35.1 94 7 45-5 87-29 125-3 3-5 6-7 10-2 2-4 4-5 7l-6 6c-1 1-1 3-2 4-41 48-103 69-164 65-51-4-98-28-132-67-1-1 0-2-1-3-2-1-4-3-5.2-5.2" stroke-width="13" stroke-dasharray="30.972"/><path d="M340.4 6.5C334-6.3 328.1-18.9 324-33.6c-.2-2-.2-3-.4-5-19.4-71.7 9.9-148.2 71-188.9.9-1.1 1.8-2.1 2.8-3.2 58.2-39.5 136.2-42.3 195.5-5.1" stroke-width="20" stroke-dasharray="7.116,35.58"/></g><circle cx="675.9" cy="-235.6" r="29.6" stroke-width="9"/><circle cx="769.3" cy="-268.1" r="17.8" stroke-width="6"/></g><g fill="#fff"><circle cx="352.2" cy="99.9" r="18.8"/><circle cx="870.1" cy="-227.9" r="21.7"/><path d="M375.6 199.6h-18.3v-18.3c0-3-2.4-5.4-5.4-5.4s-5.4 2.4-5.4 5.4v18.3h-18.2c-3 0-5.4 2.4-5.4 5.4s2.4 5.4 5.4 5.4h18.3v18.3c0 3 2.4 5.4 5.4 5.4s5.4-2.4 5.4-5.4v-18.3h18.3c3 0 5.4-2.4 5.4-5.4-.1-3-2.5-5.4-5.5-5.4zM891-165.1H445c-18.2 0-33 14.8-33 33v446c0 18.2 14.8 33 33 33h446c18.2 0 33-14.8 33-33v-446c0-18.2-14.8-33-33-33zm18 479c0 9.9-8.1 18-18 18H445c-9.9 0-18-8.1-18-18v-377h.2c0-.3-.1-.6-.2-.9-.2-1.7-.2-3.4 0-5-.2-1.8-.2-3.7.1-5.5 0-.1-.1-.3-.1-.4-.2-1.4-.2-2.8-.1-4.2v-53c0-9.9 8.1-18 18-18h446c9.9 0 18 8.1 18 18v53.7c.1.9.1 1.8 0 2.7v4.4a20.71 20.71 0 0 1-.3 5c.1.3.1.6.2.9.2 1.4.2 2.8.1 4.2l.1 375.1zm-398.2-80.1c.9 0 1.7-.2 2.6-.5 20.5-8.9 55.1-13.6 102.9-13.8l4.6 9.3c1.6 3.2 5.5 4.5 8.6 2.9 3.2-1.6 4.5-5.4 2.9-8.6l-6.4-12.9c-1.1-2.2-3.3-3.6-5.8-3.6-52.4 0-89 4.9-112 14.9-3.3 1.4-4.7 5.2-3.3 8.5a6.54 6.54 0 0 0 5.9 3.8zm334.4 11.3h-12.9V213c0-1.7-.7-3.3-1.9-4.5l-38.5-38.6c1.2-2.5 1.9-5.3 1.9-8.3 0-10.6-8.6-19.3-19.3-19.3-10.6 0-19.3 8.6-19.3 19.3 0 10.6 8.6 19.3 19.3 19.3 3 0 5.7-.7 8.3-1.9l36.7 36.7v29.5H485.3c-7.1 0-12.9 5.8-12.9 12.9v19.3c0 3.5 2.9 6.4 6.4 6.4s6.4-2.9 6.4-6.4v-19.3h359.9v19.3c0 3.5 2.9 6.4 6.4 6.4a6.38 6.38 0 0 0 6.4-6.4v-19.3c.2-7.2-5.6-13-12.7-13zM774.6 168c-3.5 0-6.4-2.9-6.4-6.4s2.9-6.4 6.4-6.4 6.4 2.9 6.4 6.4-2.9 6.4-6.4 6.4zM564.3 90.3c4.7 12.2 20.2 51.5 31.4 68.4l1 1.5c8.3 12.5 22.1 33.5 68.6 33.5s60.3-20.9 68.6-33.5l1-1.5c11.2-16.9 26.7-56.2 31.4-68.4 8.4-2.1 14.6-9.7 14.6-18.7V45.9c0-8.4-5.4-15.5-12.9-18.2V-5.5c0-25.4-13.4-72.2-62.8-76.8-.1-3-1.1-5.5-2.2-7.3-6.3-10.2-24.1-12.4-37.8-12.4C550.8-102 549.5 6.2 549.5 7.3c0 3.5 2.9 6.4 6.4 6.4 3.5 0 6.4-2.9 6.4-6.4 0-3.9 1.5-96.4 102.8-96.4 18.2 0 25.5 3.9 26.9 6.3.2.3.7 1.2-.5 3.7-1 2-.9 4.4.3 6.3s3.2 3 5.5 3c57 0 57.8 61.7 57.8 64.3v38.6c0 3.5 2.9 6.4 6.4 6.4s6.4 2.9 6.4 6.4v25.7c0 3.5-2.9 6.4-6.4 6.4-2.7 0-5.1 1.7-6 4.2-.2.5-19.2 50.9-31.5 69.4l-1.1 1.6c-7.7 11.7-18.3 27.7-57.9 27.7s-50.2-16-57.9-27.7l-1.1-1.6c-12.3-18.4-31.3-68.9-31.5-69.4-.9-2.5-3.3-4.2-6-4.2-3.5 0-6.4-2.9-6.4-6.4V45.9c0-1.7.7-3.3 1.8-4.5 2.3 5.2 7.1 10 15.1 10.7l22 16.5c1.7 12.5 12.4 22.2 25.4 22.2h12.9c14.2 0 25.7-11.5 25.7-25.7 0 14.2 11.5 25.7 25.7 25.7h12.9c13 0 23.6-9.7 25.4-22.2L752.5 51c2.8-2.1 3.4-6.2 1.3-9s-6.2-3.4-9-1.3L728.4 53c-2.4-7.8-9.7-13.6-18.3-13.6h-25.7c-10.6 0-19.3 8.6-19.3 19.3 0-10.6-8.7-19.3-19.3-19.3h-25.7c-8.6 0-15.9 5.7-18.3 13.6l-12.3-9.2c5.1-12.2 9.6-30.3 10.9-43C620.7.4 679.3-2 705.3-18.3c5.9 22.8 24.9 42 25.8 43a6.46 6.46 0 0 0 9.1 0 6.46 6.46 0 0 0 0-9.1c-.2-.2-23.8-24.1-23.8-46.9a6.42 6.42 0 0 0-4.7-6.2c-2.8-.8-5.7.4-7.2 2.9C695.1-19 634.4-12 594.3-12c-3.5 0-6.4 2.9-6.4 6.4 0 10.4-4.9 31.3-10.2 44.1-2-1.2-2.6-3.5-2.7-5.5 0-3.5-2.9-6.4-6.4-6.4-10.6 0-19.3 8.6-19.3 19.3v25.7c.3 9.1 6.6 16.7 15 18.7zm113.9-31.5c0-3.5 2.9-6.4 6.4-6.4h25.7c3.5 0 6.4 2.9 6.4 6.4v6.4c0 7.1-5.8 12.9-12.9 12.9H691c-7.1 0-12.9-5.8-12.9-12.9v-6.4h.1zm-64.3 0c0-3.5 2.9-6.4 6.4-6.4H646c3.5 0 6.4 2.9 6.4 6.4v6.4c0 7.1-5.8 12.9-12.9 12.9h-12.9c-7.1 0-12.9-5.8-12.9-12.9v-6.4h.2zm83.5 70.7c0-3.5-2.9-6.4-6.4-6.4-.1 0-11.6-.1-22.9-5.8-1.8-.9-3.9-.9-5.7 0-11.2 5.6-22.7 5.8-22.8 5.8-3.5 0-6.4 2.9-6.4 6.4s2.9 6.4 6.4 6.4c.5 0 12.7-.1 25.7-5.8 13 5.7 25.2 5.8 25.7 5.8 3.5 0 6.4-2.9 6.4-6.4zm12.9 77.4c-2.4 0-4.6 1.4-5.7 3.5l-6.4 12.6c-1.6 3.2-.4 7 2.8 8.6.9.5 1.9.7 2.9.7 2.3 0 4.6-1.3 5.7-3.5l4.6-9.1c35.1.1 63.4 2.7 84.1 7.8 3.5.9 6.9-1.3 7.8-4.7s-1.3-6.9-4.7-7.8c-22.5-5.5-53-8.4-91.1-8.1zm-51.4 6.1v12.9c0 3.5 2.9 6.4 6.4 6.4s6.4-2.9 6.4-6.4V213c0-3.5-2.9-6.4-6.4-6.4a6.38 6.38 0 0 0-6.4 6.4zm0-70.7c-3.5 0-6.4 2.9-6.4 6.4s2.9 6.4 6.4 6.4h12.9a6.38 6.38 0 0 0 6.4-6.4c0-3.5-2.9-6.4-6.4-6.4h-12.9z"/></g></svg>