<svg xmlns="http://www.w3.org/2000/svg" xmlns:xlink="http://www.w3.org/1999/xlink" viewBox="146.7 -448.6 1038.3 1040"><g fill="#fff"><path d="M1076.3 148c-19.5-19.5-47.3-23.4-62.1-8.6l-47.8 47.8c-10.3 10.3-29.7 7.6-43.3-6-13.6-13.6-16.3-33-6-43.3l246.4-246.4c14.8-14.8 10.9-42.6-8.6-62.1s-47.3-23.4-62.1-8.6L890.2 23.4c-10.3 10.3-29.7 7.6-43.3-6-13.6-13.6-16.3-33-6-43.3L845-30c14.8-14.8 10.9-42.6-8.6-62.1s-47.3-23.4-62.1-8.6l-282 282c-14.8 14.8-10.9 42.6 8.6 62.1s47.3 23.4 62.1 8.6l54.3-54.3c10.3-10.3 29.7-7.6 43.3 6 13.6 13.6 16.3 33 6 43.3L398.8 514.8c-14.8 14.8-10.9 42.6 8.6 62.1s47.3 23.4 62.1 8.6l224-224c10.3-10.3 29.7-7.6 43.3 6 13.6 13.6 16.3 33 6 43.3l-10.5 10.5c-14.8 14.8-10.9 42.6 8.6 62.1s47.3 23.4 62.1 8.6l281.9-281.9c14.8-14.8 10.9-42.6-8.6-62.1z" opacity=".1"/><path d="M836.3-92.1c-19.5-19.5-47.3-23.4-62.1-8.6l-47.8 47.8c-10.3 10.3-29.7 7.6-43.3-6-13.6-13.6-16.3-33-6-43.3l246.4-246.4c14.8-14.8 10.9-42.6-8.6-62.1s-47.3-23.4-62.1-8.6L650.2-216.6c-10.3 10.3-29.7 7.6-43.3-6-13.6-13.6-16.3-33-6-43.3l4.1-4.1c14.8-14.8 10.9-42.6-8.6-62.1s-47.3-23.4-62.1-8.6l-282 281.9c-14.8 14.8-10.9 42.6 8.6 62.1s47.3 23.4 62.1 8.6l54.3-54.3c10.3-10.3 29.7-7.6 43.3 6 13.6 13.6 16.3 33 6 43.3L158.8 274.7c-14.8 14.8-10.9 42.6 8.6 62.1s47.3 23.4 62.1 8.6l224-224c10.3-10.3 29.7-7.6 43.3 6 13.6 13.6 16.3 33 6 43.3l-10.5 10.5c-14.8 14.8-10.9 42.6 8.6 62.1s47.3 23.4 62.1 8.6L844.9-30c14.8-14.7 10.9-42.5-8.6-62.1z" opacity=".1"/></g><g fill="none" stroke="#fff"><g stroke-miterlimit="10"><path d="M1019.9 151.9c21.1 27 30.1 60 35.1 94 7 45-5 87-29 125-3 3-5 6-7 10-2 2-4 4-5 7l-6 6c-1 1-1 3-2 4-41 48-103 69-164 65-51-4-98-28-132-67-1-1 0-2-1-3-2-1-4-3-5.2-5.2" stroke-width="13" stroke-dasharray="30.972"/><path d="M340.4 6.5C334-6.3 328.1-18.9 324-33.6c-.2-2-.2-3-.4-5-19.4-71.7 9.9-148.2 71-188.9.9-1.1 1.8-2.1 2.8-3.2 58.2-39.5 136.2-42.3 195.5-5.1" stroke-width="20" stroke-dasharray="7.116,35.58"/></g><circle cx="675.9" cy="-235.6" r="29.6" stroke-width="9"/><circle cx="769.3" cy="-268.1" r="17.8" stroke-width="6"/></g><g fill="#fff"><circle cx="352.2" cy="99.9" r="18.8"/><circle cx="870.1" cy="-227.9" r="21.7"/><path d="M375.6 199.6h-18.3v-18.3c0-3-2.4-5.4-5.4-5.4s-5.4 2.4-5.4 5.4v18.3h-18.2c-3 0-5.4 2.4-5.4 5.4s2.4 5.4 5.4 5.4h18.3v18.3c0 3 2.4 5.4 5.4 5.4s5.4-2.4 5.4-5.4v-18.3h18.3c3 0 5.4-2.4 5.4-5.4-.1-3-2.5-5.4-5.5-5.4z"/></g><defs><path id="a" d="M470-104.8h390.9V287H470z"/></defs><clipPath id="b"><use xlink:href="#a"/></clipPath><path d="M704.4 90.8c13.1 0 24-9.8 25.7-22.5l23.8-17.8c2.9-2.2 3.5-6.2 1.3-9.1s-6.2-3.5-9.1-1.3l-16.6 12.4c-2.5-7.9-9.8-13.7-18.6-13.7h-26c-10.8 0-19.5 8.8-19.5 19.5 0-10.8-8.8-19.5-19.5-19.5h-26c-8.8 0-16.1 5.8-18.6 13.7l-16.6-12.4c-2.9-2.2-7-1.6-9.1 1.3-2.2 2.9-1.6 7 1.3 9.1l23.8 17.8c1.7 12.7 12.5 22.5 25.7 22.5h13c14.4 0 26-11.7 26-26 0 14.4 11.7 26 26 26h13zm-52.1-26c0 7.2-5.8 13-13 13h-13c-7.2 0-13-5.8-13-13v-6.5a6.49 6.49 0 0 1 6.5-6.5h26a6.49 6.49 0 0 1 6.5 6.5v6.5zm26 0v-6.5a6.49 6.49 0 0 1 6.5-6.5h26a6.49 6.49 0 0 1 6.5 6.5v6.5c0 7.2-5.8 13-13 13h-13c-7.1 0-13-5.8-13-13z" clip-path="url(#b)" fill="#fff"/><defs><path id="c" d="M470-104.8h390.9V287H470z"/></defs><clipPath id="d"><use xlink:href="#c"/></clipPath><g fill="#fff"><path d="M860.4 278l-6.7-26.5c-3.3-10-23.1-42.3-136.4-43.2v-6.8a6.49 6.49 0 1 0-13 0v13.2c0 4-1.3 38.8-39.1 38.8-37.7 0-39-35.1-39.1-39.1v-13a6.49 6.49 0 1 0-13 0v6.6c-84.4.7-126.6 14.1-136.5 43.9l-6.5 26c-.9 3.5 1.3 7 4.7 7.9 3.5.9 7-1.2 7.9-4.7l6.4-25.6c7.6-22.7 48.3-34 124.5-34.6 2.4 18.6 15 45.5 51.6 45.5s49.3-26.7 51.6-45.3c89.2.7 120.2 21.7 124.3 33.8l6.5 26c.7 3 3.4 4.9 6.3 4.9.5 0 1.1-.1 1.6-.2 3.7-.6 5.8-4.1 4.9-7.6z" clip-path="url(#d)"/><path d="M514.8-72l149.7 19.5c.3 0 .6.1.8.1.3 0 .6 0 .8-.1l142.4-18.6v22.6c-4.1 4.6-13 16-13 28.6C795.5-5.6 807.2-.4 815-.4s19.5-5.2 19.5-19.5c0-12.5-8.9-24-13-28.6v-30c0-.9-.2-1.7-.5-2.4-.1-.3-.3-.5-.4-.7-.3-.5-.5-.9-.9-1.3-.2-.2-.5-.4-.8-.6-.4-.3-.7-.6-1.2-.8-.3-.2-.7-.2-1-.3s-.6-.3-.9-.3l-149.7-19.5c-.6-.1-1.1-.1-1.7 0L514.7-84.9c-3.2.4-5.7 3.2-5.7 6.5.1 3.2 2.5 6 5.8 6.4zm306.8 52.1c0 5.2-3.5 6.4-6.5 6.5-3-.1-6.5-1.3-6.5-6.5 0-5.4 3.3-11.4 6.5-15.9 3.1 4.5 6.5 10.5 6.5 15.9zM665.3-91.4l99.4 13-99.4 13-99.4-13 99.4-13zm15 223.1c-.2.2-5.1 4.7-15 4.7-9.7 0-14.7-4.4-15-4.7a6.37 6.37 0 0 0-9.1.1c-2.5 2.5-2.5 6.7 0 9.2.9.9 8.9 8.4 24.1 8.4 15.3 0 23.3-7.6 24.1-8.4 2.5-2.5 2.5-6.5 0-9.1-2.4-2.6-6.5-2.6-9.1-.2zM561.2 26.8c-7.6 2.7-13 9.9-13 18.4v26c0 9.1 6.2 16.7 14.6 18.9 3.5 10.3 13.1 38.1 18.6 49.1 10.3 20.7 39.7 55.7 83.9 55.7 44.3 0 73.6-35 83.9-55.7 5.5-11 15.1-38.8 18.6-49.1 8.4-2.2 14.7-9.8 14.7-18.9v-26c0-8.5-5.4-15.7-13-18.4v-7.6a6.5 6.5 0 1 0-13 0v13a6.49 6.49 0 0 0 6.5 6.5 6.49 6.49 0 0 1 6.5 6.5v26a6.49 6.49 0 0 1-6.5 6.5c-2.8 0-5.3 1.8-6.2 4.5-.1.4-13 38.8-19.2 51.2-1 2-24.8 48.5-72.3 48.5S594 135.4 593 133.4c-6.2-12.5-19-50.8-19.2-51.2-.9-2.7-3.4-4.5-6.2-4.5a6.49 6.49 0 0 1-6.5-6.5v-26a6.49 6.49 0 0 1 6.5-6.5 6.49 6.49 0 0 0 6.5-6.5v-13a6.5 6.5 0 1 0-13 0v7.6h.1zm6.5-85.7a6.49 6.49 0 0 0-6.5 6.5v45.6c0 2.5 1.4 4.7 3.6 5.8 1.7.8 41.1 20.2 100.6 20.2C724.8 19.2 764.3-.2 766-1a6.56 6.56 0 0 0 3.6-5.8v-45.6a6.5 6.5 0 1 0-13 0V-11c-10.8 4.6-44.8 17.2-91.1 17.2S585.1-6.5 574.4-11v-41.4c-.2-3.6-3.1-6.5-6.7-6.5zM891-165.1H445c-18.2 0-33 14.8-33 33v446c0 18.2 14.8 33 33 33h446c18.2 0 33-14.8 33-33v-446c0-18.2-14.8-33-33-33zm18 479c0 9.9-8.1 18-18 18H445c-9.9 0-18-8.1-18-18v-377h.2c0-.3-.1-.6-.2-.9-.2-1.7-.2-3.4 0-5-.2-1.8-.2-3.7.1-5.5 0-.1-.1-.3-.1-.4-.2-1.4-.2-2.8-.1-4.2v-53c0-9.9 8.1-18 18-18h446c9.9 0 18 8.1 18 18v53.7c.1.9.1 1.8 0 2.7v4.4a20.71 20.71 0 0 1-.3 5c.1.3.1.6.2.9.2 1.4.2 2.8.1 4.2l.1 375.1z"/></g></svg>